<svg width="20" height="20" viewBox="0 0 20 20" fill="none" xmlns="http://www.w3.org/2000/svg">
<path d="M9.525 0.294985C9.56882 0.206446 9.63652 0.131918 9.72045 0.0798104C9.80438 0.0277032 9.90121 9.15527e-05 10 9.15527e-05C10.0988 9.15527e-05 10.1956 0.0277032 10.2795 0.0798104C10.3635 0.131918 10.4312 0.206446 10.475 0.294985L12.785 4.97399C12.9372 5.28195 13.1618 5.54839 13.4396 5.75044C13.7174 5.95248 14.0401 6.0841 14.38 6.13399L19.546 6.88999C19.6439 6.90417 19.7358 6.94546 19.8115 7.00918C19.8871 7.07291 19.9434 7.15653 19.974 7.25059C20.0046 7.34465 20.0083 7.44539 19.9846 7.54142C19.9609 7.63745 19.9108 7.72494 19.84 7.79398L16.104 11.432C15.8576 11.6721 15.6733 11.9685 15.5668 12.2956C15.4604 12.6228 15.4351 12.9709 15.493 13.31L16.375 18.45C16.3923 18.5478 16.3817 18.6485 16.3445 18.7407C16.3073 18.8328 16.2449 18.9126 16.1645 18.971C16.0842 19.0294 15.989 19.064 15.8899 19.0709C15.7908 19.0778 15.6917 19.0567 15.604 19.01L10.986 16.582C10.6817 16.4222 10.3432 16.3387 9.9995 16.3387C9.65582 16.3387 9.31728 16.4222 9.013 16.582L4.396 19.01C4.30833 19.0564 4.2094 19.0773 4.11045 19.0702C4.0115 19.0632 3.91652 19.0285 3.83629 18.9702C3.75607 18.9119 3.69383 18.8322 3.65666 18.7402C3.61948 18.6482 3.60886 18.5477 3.626 18.45L4.507 13.311C4.5652 12.9717 4.53998 12.6234 4.43354 12.296C4.32709 11.9687 4.14261 11.6721 3.896 11.432L0.159999 7.79499C0.088593 7.72602 0.0379924 7.63838 0.0139616 7.54206C-0.0100692 7.44574 -0.00656391 7.3446 0.0240779 7.25018C0.0547198 7.15575 0.111266 7.07183 0.187276 7.00797C0.263286 6.94411 0.355703 6.90288 0.453999 6.88899L5.619 6.13399C5.95926 6.08448 6.28239 5.95304 6.56058 5.75097C6.83878 5.5489 7.0637 5.28226 7.216 4.97399L9.525 0.294985Z" fill="#FFD374"/>
</svg>
